<svg xmlns="http://www.w3.org/2000/svg" xmlns:svgjs="http://svgjs.com/svgjs" xmlns:xlink="http://www.w3.org/1999/xlink" width="288" height="288"><svg xmlns="http://www.w3.org/2000/svg" width="288" height="288" data-name="Layer 1" viewBox="0 0 32 32"><rect width="8" height="2" x="2" y="28" fill="#1565c0" class="color000 svgShape"/><path fill="#1565c0" d="M17 29a1 1 0 01-.7808-.3752L12.52 24H2V22H13a1 1 0 01.7808.3752l3.146 3.9322 5.2412-7.8621A1 1 0 0123.8 18.4L26.5 22H30v2H26a.9991.9991 0 01-.8-.4l-2.1523-2.8694-5.2159 7.824a.9986.9986 0 01-.7885.4443zM11 16V11h1a4.0045 4.0045 0 004-4V4H13a3.9779 3.9779 0 00-2.7468 1.1067A6.0034 6.0034 0 005 2H2V5a6.0066 6.0066 0 006 6H9v5H2v2H16V16zM13 6h1V7a2.002 2.002 0 01-2 2H11V8A2.002 2.002 0 0113 6zM8 9A4.0045 4.0045 0 014 5V4H5A4.0045 4.0045 0 019 8V9z" class="color000 svgShape"/><rect width="32" height="32" fill="none" data-name="&amp;lt;Transparent Rectangle&amp;gt;"/></svg></svg>